<svg width="24" height="24" viewBox="0 0 24 24" fill="none" xmlns="http://www.w3.org/2000/svg">
<path d="M12.0604 21.6398C12.7075 21.6398 13.155 21.1896 13.155 20.5298V8.05134L13.0347 4.7778L12.3682 5.10706L15.7265 8.84488L18.0076 11.0949C18.2045 11.2935 18.4753 11.4119 18.7869 11.4119C19.3922 11.4119 19.837 10.9597 19.837 10.3482C19.837 10.0547 19.7313 9.7913 19.5006 9.55425L12.878 2.92157C12.6582 2.69355 12.3639 2.57141 12.0604 2.57141C11.7568 2.57141 11.4607 2.69355 11.2428 2.92157L4.62837 9.55425C4.39955 9.7913 4.28564 10.0547 4.28564 10.3482C4.28564 10.9597 4.73042 11.4119 5.3357 11.4119C5.64728 11.4119 5.92452 11.2935 6.11496 11.0949L8.39248 8.84488L11.7444 5.10706L11.0843 4.7778L10.9639 8.05134V20.5298C10.9639 21.1896 11.4133 21.6398 12.0604 21.6398Z" fill="#FF0004"/>
</svg>
