<svg width="24" height="24" viewBox="0 0 24 24" fill="none" xmlns="http://www.w3.org/2000/svg">
<path d="M12.0622 2.57143C11.4151 2.57143 10.9675 3.0216 10.9675 3.68134L10.9675 16.1598L11.0879 19.4334L11.7544 19.1041L8.39603 15.3663L6.11491 13.1163C5.91803 12.9177 5.64726 12.7993 5.33568 12.7993C4.73037 12.7993 4.2856 13.2515 4.2856 13.863C4.2856 14.1565 4.39129 14.4199 4.62194 14.6569L11.2446 21.2896C11.4643 21.5176 11.7586 21.6398 12.0622 21.6398C12.3657 21.6398 12.6618 21.5176 12.8798 21.2896L19.4942 14.6569C19.723 14.4199 19.8369 14.1565 19.8369 13.863C19.8369 13.2515 19.3921 12.7993 18.7869 12.7993C18.4753 12.7993 18.198 12.9177 18.0076 13.1163L15.7301 15.3663L12.3782 19.1041L13.0383 19.4334L13.1586 16.1598L13.1586 3.68134C13.1586 3.0216 12.7092 2.57143 12.0622 2.57143Z" fill="#00C600"/>
</svg>
