<svg width="24" height="24" viewBox="0 0 24 24" fill="none" xmlns="http://www.w3.org/2000/svg">
<path d="M11.8871 16.002C12.9645 16.002 13.6508 15.3696 13.6978 14.5767C13.705 14.4972 13.7086 14.4013 13.7123 14.3416C13.7629 13.3181 14.466 12.6312 15.7683 11.7922C17.7288 10.5309 19 9.40311 19 7.1111C19 3.84759 16.025 2 12.5103 2C9.10718 2 6.80321 3.53118 6.1825 5.36686C6.06753 5.69916 6 6.0279 6 6.38368C6 7.32814 6.73969 7.90531 7.55331 7.90531C8.26944 7.90531 8.74937 7.59804 9.13291 7.08883L9.45126 6.67622C10.1223 5.60575 11.0827 5.023 12.2719 5.023C13.9113 5.023 14.9887 5.97064 14.9887 7.30587C14.9887 8.56438 14.159 9.17018 12.4624 10.3289C11.0605 11.3012 10.0221 12.3152 10.0221 14.1056C10.0221 14.1744 10.0221 14.2558 10.0221 14.3247C10.0221 15.4296 10.6791 16.002 11.8871 16.002ZM11.8413 22C13.1084 22 14.1533 21.1021 14.1533 19.8544C14.1533 18.6265 13.1249 17.7213 11.8413 17.7213C10.5777 17.7213 9.53857 18.6392 9.53857 19.8544C9.53857 21.0857 10.5943 22 11.8413 22Z" fill="black"/>
</svg>
