<svg width="24" height="24" viewBox="0 0 24 24" fill="none" xmlns="http://www.w3.org/2000/svg">
    <path d="M12.329 17.8584C12.6705 17.8566 12.9795 17.7255 13.2334 17.4586L20.8814 9.62342C21.101 9.40385 21.2195 9.13224 21.2195 8.81423C21.2195 8.15812 20.7103 7.64062 20.0596 7.64062C19.7416 7.64062 19.4455 7.76819 19.2187 7.99218L11.8372 15.5625H12.8198L5.43115 7.99218C5.21078 7.7718 4.91647 7.64062 4.58841 7.64062C3.93592 7.64062 3.42847 8.15812 3.42847 8.81423C3.42847 9.13044 3.5488 9.40204 3.76476 9.63166L11.4164 17.4586C11.6868 17.7291 11.9811 17.8584 12.329 17.8584Z"
          fill="#8A8A8E"/>
</svg>
