<svg width="28" height="28" viewBox="0 0 28 28" fill="none" xmlns="http://www.w3.org/2000/svg">
<path fill-rule="evenodd" clip-rule="evenodd" d="M10.357 3H13C13.2652 3 13.5196 3.10536 13.7071 3.29289C13.8946 3.48043 14 3.73478 14 4C14 4.26522 13.8946 4.51957 13.7071 4.70711C13.5196 4.89464 13.2652 5 13 5H10.4C9.263 5 8.471 5 7.854 5.051C7.249 5.101 6.901 5.193 6.638 5.327C6.07354 5.61462 5.61462 6.07354 5.327 6.638C5.193 6.901 5.101 7.249 5.051 7.854C5.001 8.471 5 9.264 5 10.4V17.6C5 18.737 5 19.529 5.051 20.146C5.101 20.751 5.193 21.099 5.327 21.362C5.61462 21.9265 6.07354 22.3854 6.638 22.673C6.901 22.807 7.249 22.899 7.854 22.949C8.471 22.999 9.264 23 10.4 23H13C13.2652 23 13.5196 23.1054 13.7071 23.2929C13.8946 23.4804 14 23.7348 14 24C14 24.2652 13.8946 24.5196 13.7071 24.7071C13.5196 24.8946 13.2652 25 13 25H10.357C9.273 25 8.399 25 7.691 24.942C6.963 24.882 6.322 24.757 5.731 24.455C4.78986 23.9758 4.02462 23.2109 3.545 22.27C3.243 21.678 3.117 21.038 3.058 20.309C3 19.6 3 18.727 3 17.643V10.357C3 9.273 3 8.399 3.058 7.691C3.118 6.963 3.243 6.322 3.545 5.731C4.02402 4.78949 4.78893 4.02388 5.73 3.544C6.322 3.242 6.963 3.116 7.691 3.057C8.4 3 9.273 3 10.357 3ZM19.293 9.293C19.4805 9.10553 19.7348 9.00021 20 9.00021C20.2652 9.00021 20.5195 9.10553 20.707 9.293L24.707 13.293C24.8945 13.4805 24.9998 13.7348 24.9998 14C24.9998 14.2652 24.8945 14.5195 24.707 14.707L20.707 18.707C20.5184 18.8892 20.2658 18.99 20.0036 18.9877C19.7414 18.9854 19.4906 18.8802 19.3052 18.6948C19.1198 18.5094 19.0146 18.2586 19.0123 17.9964C19.01 17.7342 19.1108 17.4816 19.293 17.293L21.586 15H12C11.7348 15 11.4804 14.8946 11.2929 14.7071C11.1054 14.5196 11 14.2652 11 14C11 13.7348 11.1054 13.4804 11.2929 13.2929C11.4804 13.1054 11.7348 13 12 13H21.586L19.293 10.707C19.1055 10.5195 19.0002 10.2652 19.0002 10C19.0002 9.73484 19.1055 9.48053 19.293 9.293Z" fill="#8A8A8E"/>
</svg>
