<svg width="350" height="350" viewBox="0 0 350 350" fill="none" xmlns="http://www.w3.org/2000/svg">
    <rect width="350" height="350" fill="white"/>
    <path d="M174.727 258.298C164.71 258.298 156.022 256.041 148.663 251.527C141.305 247.013 135.616 240.798 131.596 232.883C127.639 224.906 125.66 215.723 125.66 205.335C125.66 194.884 127.7 185.701 131.782 177.786C135.863 169.809 141.583 163.626 148.941 159.235C156.3 154.783 164.895 152.557 174.727 152.557C184.745 152.557 193.433 154.814 200.791 159.328C208.15 163.842 213.839 170.057 217.858 177.972C221.878 185.887 223.887 195.008 223.887 205.335C223.887 215.785 221.847 224.999 217.766 232.976C213.746 240.891 208.057 247.105 200.699 251.619C193.34 256.072 184.683 258.298 174.727 258.298ZM174.727 240.025C184.312 240.025 191.454 236.81 196.154 230.378C200.915 223.886 203.296 215.538 203.296 205.335C203.296 194.884 200.884 186.536 196.061 180.291C191.299 173.983 184.188 170.83 174.727 170.83C168.234 170.83 162.886 172.314 158.681 175.282C154.476 178.188 151.353 182.239 149.312 187.433C147.272 192.565 146.251 198.533 146.251 205.335C146.251 215.847 148.663 224.257 153.486 230.564C158.31 236.871 165.39 240.025 174.727 240.025Z" fill="#F9B516"/>
    <path fill-rule="evenodd" clip-rule="evenodd" d="M239.077 100.936L216.586 143.378L201.845 135.567L224.336 93.1243L239.077 100.936Z" fill="#F9B516"/>
    <path fill-rule="evenodd" clip-rule="evenodd" d="M121.493 101.641L139.02 138.604L123.947 145.752L106.419 108.789L121.493 101.641Z" fill="#F9B516"/>
    <path fill-rule="evenodd" clip-rule="evenodd" d="M179.735 55.3234V137.9H163.052V55.3234H179.735Z" fill="#F9B516"/>
    <path d="M194.488 219.487C194.488 225.274 189.796 229.966 184.009 229.966C178.222 229.966 173.531 225.274 173.531 219.487C173.531 213.7 178.222 209.009 184.009 209.009C189.796 209.009 194.488 213.7 194.488 219.487Z" fill="#221E1F"/>
</svg>